<svg width="48" height="45" viewBox="0 0 48 45" fill="none" xmlns="http://www.w3.org/2000/svg">
<path d="M25.8408 43.9838C25.1042 43.9838 24.3676 43.9476 23.631 43.8753C11.5542 42.6083 2.71492 31.1879 3.91404 18.4281C4.49647 12.2926 7.3401 6.71809 11.7597 2.84491C7.75123 6.66379 5.21594 11.8763 4.66777 17.6861C4.08534 23.8397 5.8155 29.8667 9.54991 34.6629C13.2843 39.4591 18.5433 42.4273 24.4019 43.0427C25.1385 43.1151 25.8922 43.1513 26.6288 43.1513C32.2647 43.1513 37.558 40.9251 41.6007 36.9434C37.4895 41.3957 31.8193 43.9838 25.8408 43.9838Z" fill="#36454F"/>
<path d="M8.84625 6.06651C6.48227 9.39672 4.99194 13.3785 4.59794 17.6679C4.01551 23.8578 5.74567 29.9028 9.4972 34.7172C13.2316 39.5315 18.5249 42.5178 24.4006 43.1332C25.1372 43.2056 25.8909 43.2418 26.6275 43.2418C31.0643 43.2418 35.2783 41.8663 38.8586 39.3505C35.1413 42.2644 30.5846 43.8933 25.8567 43.8933C25.12 43.8933 24.3835 43.8571 23.6468 43.7847C17.8225 43.1694 12.5635 40.2012 8.86338 35.4049C5.1461 30.6087 3.43307 24.5818 4.0155 18.4281C4.42663 13.831 6.1568 9.54151 8.84625 6.06651ZM15.2016 0.238647C9.03468 3.82224 4.58081 10.4465 3.82707 18.41C2.61082 31.2422 11.4843 42.6807 23.6297 43.9657C24.3834 44.0381 25.12 44.0743 25.8567 44.0743C33.2227 44.0743 39.8864 40.2012 43.9291 34.138C39.8864 39.622 33.5653 43.0789 26.6275 43.0789C25.8909 43.0789 25.1543 43.0427 24.4177 42.9703C12.3751 41.7034 3.57012 30.3915 4.76924 17.7041C5.47158 10.175 9.51433 3.87654 15.2016 0.238647Z" fill="#36454F"/>
<path d="M26.8331 1.5599C36.5631 1.5599 44.4773 9.88542 44.4773 20.1113C44.4773 30.3372 36.5631 38.6628 26.8331 38.6628C17.1031 38.6628 9.18887 30.3372 9.18887 20.1113C9.18887 9.88542 17.1031 1.5599 26.8331 1.5599ZM26.8331 0.292969C16.4179 0.292969 7.98975 9.16146 7.98975 20.1113C7.98975 31.0612 16.4179 39.9297 26.8331 39.9297C37.2483 39.9297 45.6764 31.0612 45.6764 20.1113C45.6764 9.16146 37.2483 0.292969 26.8331 0.292969Z" fill="#36454F"/>
<path d="M0.14447 36.5451L43.073 11.6591L0.949591 37.993L0.14447 36.5451Z" fill="#36454F"/>
<path d="M38.4988 14.4101L0.983468 37.8664L0.263993 36.5814L38.4988 14.4101ZM47.6464 8.88995L0.0241699 36.509L0.932074 38.1198L47.6464 8.88995Z" fill="#36454F"/>
</svg>
