<?xml version="1.0" encoding="utf-8"?>
<svg version="1.1" id="Layer_1" xmlns="http://www.w3.org/2000/svg" xmlns:xlink="http://www.w3.org/1999/xlink" x="0px" y="0px"
	 viewBox="0 0 1366 768" style="enable-background:new 0 0 1366 768;" xml:space="preserve">
<g>
	<path d="M641.2,436.4c-4.3,0-8.6-0.2-12.9-0.6c-70.5-7-122.1-70.1-115.1-140.6c3.4-33.9,20-64.7,45.8-86.1
		c-23.4,21.1-38.2,49.9-41.4,82c-3.4,34,6.7,67.3,28.5,93.8c21.8,26.5,52.5,42.9,86.7,46.3c4.3,0.4,8.7,0.6,13,0.6
		c32.9,0,63.8-12.3,87.4-34.3C709.2,422.1,676.1,436.4,641.2,436.4z"/>
	<path d="M542,226.9c-13.8,18.4-22.5,40.4-24.8,64.1c-3.4,34.2,6.7,67.6,28.6,94.2c21.8,26.6,52.7,43.1,87,46.5
		c4.3,0.4,8.7,0.6,13,0.6c25.9,0,50.5-7.6,71.4-21.5c-21.7,16.1-48.3,25.1-75.9,25.1c-4.3,0-8.6-0.2-12.9-0.6
		c-34-3.4-64.7-19.8-86.3-46.3c-21.7-26.5-31.7-59.8-28.3-93.8C516.2,269.8,526.3,246.1,542,226.9 M579.1,194.7
		c-36,19.8-62,56.4-66.4,100.4c-7.1,70.9,44.7,134.1,115.6,141.2c4.4,0.4,8.7,0.6,13,0.6c43,0,81.9-21.4,105.5-54.9
		c-23.6,30.3-60.5,49.4-101,49.4c-4.3,0-8.6-0.2-12.9-0.6c-70.3-7-121.7-69.5-114.7-139.6C522.3,249.6,545.9,214.8,579.1,194.7
		L579.1,194.7z"/>
</g>
<g>
	<path d="M647,202c56.8,0,103,46,103,102.5S703.8,407,647,407s-103-46-103-102.5S590.2,202,647,202 M647,195
		c-60.8,0-110,49-110,109.5S586.2,414,647,414s110-49,110-109.5S707.8,195,647,195L647,195z"/>
</g>
<g>
	<polygon points="491.2,395.3 741.8,257.8 495.9,403.3 	"/>
	<path d="M715.1,273l-219,129.6l-4.2-7.1L715.1,273 M768.5,242.5l-278,152.6l5.3,8.9L768.5,242.5L768.5,242.5z"/>
</g>
</svg>
